<?xml version="1.0" standalone="no"?>
<!DOCTYPE svg PUBLIC "-//W3C//DTD SVG 20010904//EN"
 "http://www.w3.org/TR/2001/REC-SVG-20010904/DTD/svg10.dtd">
<svg version="1.0" xmlns="http://www.w3.org/2000/svg"
 width="218.000000pt" height="297.000000pt" viewBox="0 0 218.000000 297.000000"
 preserveAspectRatio="xMidYMid meet">

<g transform="translate(0.000000,297.000000) scale(0.100000,-0.100000)"
fill="#000000" stroke="none">
<path d="M60 2960 c-16 -10 -21 -122 -6 -137 4 -4 132 -10 284 -13 152 -3 283
-9 290 -13 17 -12 15 -42 -5 -58 -12 -11 -77 -15 -295 -17 l-278 -4 0 -39 0
-39 183 -1 c100 -1 232 -4 292 -8 102 -6 110 -8 113 -27 2 -11 -3 -26 -10 -31
-8 -7 -122 -14 -295 -18 l-283 -8 0 -38 0 -39 228 -1 c287 -2 356 -8 360 -32
9 -45 -4 -47 -304 -47 l-284 0 0 -45 0 -45 208 -1 c114 -1 245 -4 292 -7 73
-6 85 -10 88 -26 8 -42 -16 -46 -309 -46 l-276 0 -7 -31 c-12 -63 -31 -59 277
-59 299 0 324 -4 315 -46 -5 -28 -36 -32 -324 -33 l-262 -1 -6 -22 c-3 -13 -6
-33 -6 -45 l0 -23 283 0 c299 0 324 -4 315 -46 -5 -28 -37 -32 -314 -33 -274
-1 -293 -5 -281 -53 l7 -26 257 -6 c303 -7 328 -11 328 -46 0 -24 -3 -25 -75
-31 -41 -4 -173 -7 -292 -8 -207 -1 -217 -2 -223 -21 -3 -11 -4 -28 0 -39 7
-23 95 -31 363 -31 114 0 201 -4 213 -10 28 -15 24 -49 -7 -60 -14 -6 -144
-10 -295 -10 l-269 0 0 -45 0 -45 269 0 c156 0 281 -4 296 -10 34 -13 31 -51
-5 -61 -14 -4 -148 -7 -298 -8 l-273 -1 7 -37 c4 -21 8 -39 9 -41 1 -1 119 -5
261 -8 323 -6 326 -7 322 -42 -3 -27 -4 -27 -103 -33 -55 -4 -187 -7 -292 -8
l-193 -1 0 -40 0 -40 158 -1 c86 -1 218 -4 292 -8 127 -6 135 -7 138 -27 6
-40 -13 -44 -306 -51 -273 -6 -281 -7 -286 -27 -16 -58 -22 -56 177 -57 100
-1 234 -4 297 -8 l115 -6 0 -30 0 -30 -140 -6 c-77 -4 -209 -7 -292 -8 l-153
-1 0 -24 c0 -13 -3 -31 -6 -40 -6 -14 22 -16 262 -17 148 -1 283 -4 299 -8 23
-5 31 -12 33 -33 4 -35 0 -36 -322 -42 -278 -5 -276 -4 -276 -58 l0 -28 273 0
c149 0 282 -3 295 -6 22 -6 41 -48 27 -62 -3 -4 -134 -9 -290 -12 -156 -3
-286 -8 -290 -11 -3 -4 -9 -23 -12 -43 l-6 -36 276 0 c155 0 287 -4 301 -10
30 -11 36 -54 10 -64 -9 -3 -141 -6 -295 -6 l-279 0 0 -45 0 -45 228 -1 c292
-2 356 -7 360 -33 8 -42 -16 -46 -310 -46 l-278 0 0 -80 0 -80 773 0 c757 0
775 0 838 21 124 40 190 80 275 164 121 120 185 256 199 422 13 149 -23 292
-103 409 -54 80 -98 122 -227 218 -173 129 -151 122 -231 69 -38 -26 -160
-111 -272 -190 -220 -157 -286 -193 -347 -193 -46 1 -130 40 -130 61 0 8 74
67 165 132 308 221 480 349 480 358 0 5 -141 108 -312 230 -172 122 -321 230
-331 239 -18 17 -17 18 34 44 56 28 126 34 174 16 14 -5 156 -102 316 -215
l290 -205 72 52 c255 181 339 274 392 432 110 328 -61 700 -379 827 -76 30
-92 32 -256 40 -254 11 -1392 11 -1410 -1z"/>
<path d="M1587 1532 c-23 -26 -21 -45 8 -72 23 -22 25 -22 50 -6 25 16 29 26
25 56 -2 19 -29 40 -50 40 -9 0 -24 -8 -33 -18z"/>
</g>
</svg>
